PathFileType	4	(X/Y/Z)	Patient4_TMGait_0pt8_01_left_22.trc.trc
DataRate	CameraRate	NumFrames	NumMarkers	Units	OrigDataRate	OrigDataStartFrame	OrigNumFrames
86.956521739130	86.956521739130	4	33	mm	86.956521739130	18	       141
Frame#	Time	Sacral			L.Shoulder			Chest			R.Shoulder			Neck			R.ASIS			L.ASIS			R.Thigh.Superior			R.Thigh.Lateral			R.Thigh.Inferior			R.Patella			L.Thigh.Superior			L.Thigh.Lateral			L.Thigh.Inferior			L.Patella			L.Shank.Superior			L.Shank.Lateral			L.Shank.Inferior			R.Shank.Superior			R.Shank.Lateral			R.Shank.Inferior			R.Heel			R.Midfoot.Superior			R.Midfoot.Lateral			R.Toe			L.Heel			L.Midfoot.Lateral			L.Midfoot.Superior			L.Toe			L.Elbow			L.Wrist			R.Elbow			R.Wrist			
		X1	Y1	Z1	X2	Y2	Z2	X3	Y3	Z3	X4	Y4	Z4	X5	Y5	Z5	X6	Y6	Z6	X7	Y7	Z7	X8	Y8	Z8	X9	Y9	Z9	X10	Y10	Z10	X11	Y11	Z11	X12	Y12	Z12	X13	Y13	Z13	X14	Y14	Z14	X15	Y15	Z15	X16	Y16	Z16	X17	Y17	Z17	X18	Y18	Z18	X19	Y19	Z19	X20	Y20	Z20	X21	Y21	Z21	X22	Y22	Z22	X23	Y23	Z23	X24	Y24	Z24	X25	Y25	Z25	X26	Y26	Z26	X27	Y27	Z27	X28	Y28	Z28	X29	Y29	Z29	X30	Y30	Z30	X31	Y31	Z31	X32	Y32	Z32	X33	Y33	Z33	

18	24.105500000000	900.565305211837	1005.043126239652	518.557774511853	1059.696577184187	1425.905949678876	318.125457231788	1185.146054985830	1351.994864868476	460.964471309043	1133.903688443107	1428.777932028562	645.635184345384	1071.094343701065	1485.818192145234	474.317415935738	1135.744439629168	932.897621177627	606.336948295025	1089.384583613210	952.213902463982	334.828985556327	1124.015728010214	719.303374542041	579.442835953751	1017.550742497147	629.246480025006	645.224439451555	1070.573836712464	562.786678033962	562.350507017347	1050.094397818704	480.525161034853	567.172398196875	1166.292931897867	774.193372207683	361.127510540615	1120.126596213630	644.584909198355	282.138507444605	1229.647270311280	590.433804109993	339.483575538163	1261.520810579756	532.307503728339	333.345274307977	1252.977647373235	461.609811884718	324.469835886039	1203.044574329232	321.957636598576	280.025138242528	1308.798393950308	238.034207458804	328.396476129903	1012.585754974473	397.717083447507	574.001281985291	932.876792905087	300.010613906726	635.472919130790	963.973016000277	203.152833520911	568.475734627118	819.282610953408	43.231458162263	530.463935845103	988.887754659706	96.239566131168	573.756915515062	898.769304735893	36.876312711173	608.828592716908	1107.354365598320	42.485467499169	607.926367886911	1256.962458882952	48.984114123047	376.473830075964	1327.582955185122	57.968896345942	293.437345243429	1385.827922684224	147.910021711103	305.506182506298	1521.662827768085	137.992305034646	276.146714820024	913.724895703169	1102.923580531394	228.108495111596	862.801704709923	850.442987306969	225.039441345476	1278.352671824380	1125.294048318681	767.753199043716	1528.519656542553	1144.806723070835	716.223365058495	
19	24.117000000000	901.013883943578	1003.781304871258	517.113171271059	1059.689704012520	1424.714304474738	316.563974699248	1185.216500476626	1350.737243400936	459.308726388217	1133.964546489846	1427.592639771839	643.909185663072	1071.123952245185	1484.411340878957	472.956608845614	1136.013829466118	931.325627562889	604.913423590161	1089.786243375758	950.533882946812	333.332084127844	1122.658230253439	717.498864970257	578.134802549570	1015.322382289472	628.348763049268	644.181678956281	1067.383461418106	561.334509941175	561.247870413484	1046.043135834419	479.011451093987	566.127802590478	1166.287376827193	772.088905476540	360.134160074467	1118.943513899723	642.106813807720	282.106804426026	1228.653731880327	588.249353357012	338.998867178697	1260.328621558049	530.384323298177	333.273335488816	1252.116805495493	459.650407198326	324.706435967122	1202.636875698465	319.462524970066	281.967421171372	1309.462805572884	236.677657974676	329.896681369810	1007.459173939377	396.666593180892	573.195527383269	926.822661029205	300.026233406717	635.305461535749	956.342954354499	202.694958875052	568.230761777945	810.091318433151	43.510178442282	530.637750281939	979.730052947660	96.171721715232	573.746060922455	889.584928153643	36.883025832482	608.874881086048	1098.152513794186	42.178175927494	607.985940744423	1259.712040526540	47.665448330962	379.893345720717	1329.249260828701	56.697385403294	295.978253429165	1387.022869328547	146.901877946185	306.939345406863	1522.563079572708	137.711507403423	276.111284746823	907.653799069026	1105.335413060813	226.994662004126	852.057278368089	853.700445648332	224.693634626343	1280.420905737777	1125.226729806401	764.976921694404	1528.026561271480	1157.850681703188	710.991007634011	
20	24.128500000000	901.648006216836	1002.399328543743	515.394581606588	1059.672908656649	1423.501610016108	314.872258581040	1185.267055160743	1349.534898166558	457.568233270520	1133.868381945067	1426.381905302429	642.095643151895	1071.064454725755	1482.992539180900	471.446991236686	1136.395984934094	929.716565423119	603.363360774955	1090.489458508047	948.842569843850	331.665460363310	1121.605100562387	715.690769220925	576.710130107314	1013.455837398225	627.390020422470	642.973051412596	1064.688416884293	559.800754048376	560.064467774886	1042.464978360460	477.353903496039	564.976540902421	1166.965626716892	770.260357906207	359.008955793660	1118.483561453416	639.712674167070	282.287592458773	1228.392922772022	586.245296472657	338.551850095707	1259.638358256821	528.102865763119	333.320235145202	1251.285448754685	457.087208118978	325.223207877278	1201.060510957750	316.856176367598	284.247581081530	1308.046177712126	234.323437828145	331.948446351497	1002.742911307458	395.505642215430	572.271658941879	921.041990694251	300.052183372703	635.000790537997	948.892131430194	202.203050673346	567.930644376524	800.919478222333	43.875717434098	530.844803498769	970.622268545674	96.142875931537	573.757801113444	880.434646135937	36.914381703765	608.924209073166	1088.986782783847	41.833032690353	608.059974110807	1258.587841898539	46.177146926855	383.896264208685	1326.907667873943	54.730624251467	298.970499753102	1385.209840579271	144.355459240921	308.981655275229	1520.179977691230	134.379820597051	276.334074259747	902.589369752555	1107.321773867297	225.910720546160	842.336462928209	856.635744421959	224.264677419159	1282.020672472255	1124.852698611172	762.076983362464	1526.537989580518	1169.701100940941	705.964413945846	
21	24.140000000000	902.465475310004	1000.923546535853	513.390387352503	1059.667414314604	1422.267890094678	313.035766766750	1185.313255818777	1348.394007124014	455.737852879913	1133.623144823592	1425.157594576015	640.190062474581	1070.924805271069	1481.574590035674	469.769658817576	1136.884753142619	928.084916591879	601.704997619551	1091.511309422171	947.154400285405	329.840496672806	1120.833304392193	713.884731314133	575.235881543327	1011.883373003148	626.386373155119	641.609243648273	1062.458162405828	558.190833061650	558.834831339387	1039.330234638171	475.548708988349	563.741665639621	1168.278660879957	768.658043405823	357.766118687994	1118.674159171972	637.406269394858	282.638392376411	1228.761089034851	584.365080484945	338.190192443448	1259.326932687469	525.474057916055	333.590583332182	1250.488622994551	454.004193425514	326.026205746384	1198.594036101175	314.133427178003	286.687474382229	1304.935777856147	231.083302083087	334.452045905097	998.398266781256	394.242596874313	571.243140933117	915.493455034241	300.097645345418	634.549136477875	941.600561716983	201.692269369058	567.581185777778	791.757875832297	44.348395313617	531.092660878595	961.565906715017	96.154118889808	573.792538902735	871.313158329150	36.980781525314	608.983808912089	1079.861361761127	41.463998730205	608.147362642343	1254.126038413237	44.543017354344	388.170687485691	1321.240398733706	52.176597609814	302.219583881016	1380.999071904167	140.419418689439	311.586959452021	1515.202355945787	128.228393792399	276.992616535269	898.542070879561	1108.807868570024	224.831233801763	833.692303732598	859.185157110117	223.726854555101	1283.121705881741	1124.174939365028	759.090729548896	1524.172811918788	1180.295486095528	701.160375311360	
